<svg width="18" height="18" viewBox="0 0 18 18" fill="none" xmlns="http://www.w3.org/2000/svg">
<path d="M13.168 2.49967H16.5013C16.7223 2.49967 16.9343 2.58747 17.0906 2.74375C17.2468 2.90003 17.3346 3.11199 17.3346 3.33301V16.6663C17.3346 16.8874 17.2468 17.0993 17.0906 17.2556C16.9343 17.4119 16.7223 17.4997 16.5013 17.4997H1.5013C1.28029 17.4997 1.06833 17.4119 0.912046 17.2556C0.755766 17.0993 0.667969 16.8874 0.667969 16.6663V3.33301C0.667969 3.11199 0.755766 2.90003 0.912046 2.74375C1.06833 2.58747 1.28029 2.49967 1.5013 2.49967H4.83464V0.833008H6.5013V2.49967H11.5013V0.833008H13.168V2.49967ZM2.33464 7.49967V15.833H15.668V7.49967H2.33464ZM4.0013 9.16634H5.66797V10.833H4.0013V9.16634ZM4.0013 12.4997H5.66797V14.1663H4.0013V12.4997ZM7.33464 9.16634H14.0013V10.833H7.33464V9.16634ZM7.33464 12.4997H11.5013V14.1663H7.33464V12.4997Z" fill="#93A3BB"/>
</svg>
