<svg width="14" height="16" viewBox="0 0 14 16" fill="none" xmlns="http://www.w3.org/2000/svg">
<path d="M3.25 3.5V1.25C3.25 1.05109 3.32902 0.860322 3.46967 0.71967C3.61032 0.579018 3.80109 0.5 4 0.5H13C13.1989 0.5 13.3897 0.579018 13.5303 0.71967C13.671 0.860322 13.75 1.05109 13.75 1.25V11.75C13.75 11.9489 13.671 12.1397 13.5303 12.2803C13.3897 12.421 13.1989 12.5 13 12.5H10.75V14.75C10.75 15.164 10.4125 15.5 9.99475 15.5H1.00525C0.906345 15.5006 0.808298 15.4816 0.716742 15.4442C0.625186 15.4068 0.541925 15.3517 0.471744 15.282C0.401563 15.2123 0.345845 15.1294 0.307791 15.0381C0.269737 14.9468 0.250097 14.8489 0.25 14.75L0.25225 4.25C0.25225 3.836 0.58975 3.5 1.0075 3.5H3.25ZM4.75 3.5H10.75V11H12.25V2H4.75V3.5ZM3.25 7.25V8.75H7.75V7.25H3.25ZM3.25 10.25V11.75H7.75V10.25H3.25Z" fill="#B7C4D7"/>
</svg>
