<svg width="18" height="16" viewBox="0 0 18 16" fill="none" xmlns="http://www.w3.org/2000/svg">
<path d="M17.3346 6.3325V14.6667C17.3346 14.8877 17.2468 15.0996 17.0906 15.2559C16.9343 15.4122 16.7223 15.5 16.5013 15.5H9.83464V6.3325H17.3346ZM8.16797 11.3325V15.5H1.5013C1.28029 15.5 1.06833 15.4122 0.912046 15.2559C0.755766 15.0996 0.667969 14.8877 0.667969 14.6667V11.3325H8.16797ZM8.16797 0.5V9.66583H0.667969V1.33333C0.667969 1.11232 0.755766 0.900358 0.912046 0.744078C1.06833 0.587797 1.28029 0.5 1.5013 0.5H8.16797ZM16.5013 0.5C16.7223 0.5 16.9343 0.587797 17.0906 0.744078C17.2468 0.900358 17.3346 1.11232 17.3346 1.33333V4.66583H9.83464V0.5H16.5013Z" fill="#93A3BB"/>
</svg>
