<svg width="16" height="13" viewBox="0 0 16 13" fill="none" xmlns="http://www.w3.org/2000/svg">
<path d="M0.667969 8.66684C0.667559 7.93047 0.854917 7.20617 1.21234 6.56237C1.56976 5.91857 2.08543 5.37654 2.71064 4.9875C2.87564 3.70089 3.50383 2.5185 4.47765 1.66161C5.45146 0.804709 6.70416 0.332031 8.0013 0.332031C9.29845 0.332031 10.5511 0.804709 11.525 1.66161C12.4988 2.5185 13.127 3.70089 13.292 4.9875C14.0675 5.46996 14.6707 6.1851 15.0155 7.03082C15.3603 7.87654 15.4291 8.80959 15.2121 9.69673C14.995 10.5839 14.5032 11.3798 13.8069 11.9707C13.1105 12.5617 12.2453 12.9176 11.3346 12.9875L4.66797 13.0002C2.43064 12.8175 0.667969 10.9482 0.667969 8.66684ZM11.2333 11.6582C11.8639 11.6097 12.463 11.3632 12.945 10.9539C13.4271 10.5445 13.7675 9.99334 13.9176 9.379C14.0677 8.76465 14.0198 8.11859 13.7808 7.53309C13.5417 6.94759 13.1238 6.4526 12.5866 6.11884L12.0486 5.7835L11.9686 5.1555C11.844 4.19129 11.3726 3.30546 10.6424 2.66356C9.91216 2.02166 8.9732 1.66763 8.00097 1.66763C7.02874 1.66763 6.08978 2.02166 5.35958 2.66356C4.62939 3.30546 4.15792 4.19129 4.0333 5.1555L3.9533 5.7835L3.41664 6.11884C2.8795 6.45257 2.46156 6.94749 2.2225 7.53294C1.98344 8.11838 1.9355 8.76439 2.08551 9.37871C2.23552 9.99303 2.57582 10.5442 3.0578 10.9536C3.53979 11.363 4.1388 11.6096 4.7693 11.6582L4.88464 11.6668H11.118L11.2333 11.6582ZM8.66797 7.00017H10.668L8.0013 10.3335L5.33464 7.00017H7.33464V4.3335H8.66797V7.00017Z" fill="#B7C4D7"/>
</svg>
