<svg width="16" height="16" viewBox="0 0 16 16" fill="none" xmlns="http://www.w3.org/2000/svg">
<path d="M3.5 13.25H1.25C1.05109 13.25 0.860322 13.171 0.71967 13.0303C0.579018 12.8897 0.5 12.6989 0.5 12.5V5C0.5 4.80109 0.579018 4.61032 0.71967 4.46967C0.860322 4.32902 1.05109 4.25 1.25 4.25H3.5V1.25C3.5 1.05109 3.57902 0.860322 3.71967 0.71967C3.86032 0.579018 4.05109 0.5 4.25 0.5H11.75C11.9489 0.5 12.1397 0.579018 12.2803 0.71967C12.421 0.860322 12.5 1.05109 12.5 1.25V4.25H14.75C14.9489 4.25 15.1397 4.32902 15.2803 4.46967C15.421 4.61032 15.5 4.80109 15.5 5V12.5C15.5 12.6989 15.421 12.8897 15.2803 13.0303C15.1397 13.171 14.9489 13.25 14.75 13.25H12.5V14.75C12.5 14.9489 12.421 15.1397 12.2803 15.2803C12.1397 15.421 11.9489 15.5 11.75 15.5H4.25C4.05109 15.5 3.86032 15.421 3.71967 15.2803C3.57902 15.1397 3.5 14.9489 3.5 14.75V13.25ZM3.5 11.75V11C3.5 10.8011 3.57902 10.6103 3.71967 10.4697C3.86032 10.329 4.05109 10.25 4.25 10.25H11.75C11.9489 10.25 12.1397 10.329 12.2803 10.4697C12.421 10.6103 12.5 10.8011 12.5 11V11.75H14V5.75H2V11.75H3.5ZM5 2V4.25H11V2H5ZM5 11.75V14H11V11.75H5ZM2.75 6.5H5V8H2.75V6.5Z" fill="#93A3BB"/>
</svg>
