<svg width="16" height="14" viewBox="0 0 16 14" fill="none" xmlns="http://www.w3.org/2000/svg">
<path d="M1.25 5.5H0.5V1.00225C0.5 0.586751 0.84125 0.250002 1.244 0.250002H14.756C14.8545 0.249794 14.952 0.269171 15.0429 0.307004C15.1338 0.344838 15.2162 0.400372 15.2855 0.470376C15.3547 0.54038 15.4093 0.623454 15.4462 0.714766C15.483 0.806077 15.5013 0.903801 15.5 1.00225V5.5H14.75V13.0008C14.7503 13.0988 14.7313 13.196 14.694 13.2868C14.6567 13.3775 14.602 13.46 14.5328 13.5296C14.4636 13.5992 14.3815 13.6545 14.2909 13.6923C14.2004 13.7301 14.1033 13.7497 14.0052 13.75H1.99475C1.89665 13.7497 1.79957 13.7301 1.70906 13.6923C1.61854 13.6545 1.53636 13.5992 1.4672 13.5296C1.39804 13.46 1.34327 13.3775 1.306 13.2868C1.26873 13.196 1.2497 13.0988 1.25 13.0008V5.5ZM13.25 5.5H2.75V12.25H13.25V5.5ZM2 1.75V4H14V1.75H2ZM5.75 7H10.25V8.5H5.75V7Z" fill="#93A3BB"/>
</svg>
