<svg width="3" height="13" viewBox="0 0 3 13" fill="none" xmlns="http://www.w3.org/2000/svg">
<path d="M1.5013 0.5C0.767969 0.5 0.167969 1.1 0.167969 1.83333C0.167969 2.56667 0.767969 3.16667 1.5013 3.16667C2.23464 3.16667 2.83464 2.56667 2.83464 1.83333C2.83464 1.1 2.23464 0.5 1.5013 0.5ZM1.5013 9.83333C0.767969 9.83333 0.167969 10.4333 0.167969 11.1667C0.167969 11.9 0.767969 12.5 1.5013 12.5C2.23464 12.5 2.83464 11.9 2.83464 11.1667C2.83464 10.4333 2.23464 9.83333 1.5013 9.83333ZM1.5013 5.16667C0.767969 5.16667 0.167969 5.76667 0.167969 6.5C0.167969 7.23333 0.767969 7.83333 1.5013 7.83333C2.23464 7.83333 2.83464 7.23333 2.83464 6.5C2.83464 5.76667 2.23464 5.16667 1.5013 5.16667Z" fill="#93A3BB"/>
</svg>
