<svg width="18" height="16" viewBox="0 0 18 16" fill="none" xmlns="http://www.w3.org/2000/svg">
<path d="M3.44366 1.78772C4.29927 1.02129 5.30423 0.440215 6.39532 0.0810547C6.70731 0.471908 7.10338 0.787412 7.55409 1.00411C8.0048 1.22081 8.49856 1.33313 8.99866 1.33272C9.49876 1.33313 9.99252 1.22081 10.4432 1.00411C10.8939 0.787412 11.29 0.471908 11.602 0.0810547C12.6931 0.440215 13.6981 1.02129 14.5537 1.78772C14.3716 2.2531 14.2967 2.7535 14.3345 3.2518C14.3723 3.75009 14.5218 4.23347 14.772 4.66605C15.0217 5.09946 15.3658 5.47101 15.7789 5.75307C16.1919 6.03513 16.6633 6.22044 17.1578 6.29522C17.3916 7.41931 17.3916 8.57947 17.1578 9.70356C16.1912 9.85189 15.2995 10.4202 14.772 11.3327C14.5217 11.7654 14.3721 12.2489 14.3343 12.7474C14.2965 13.2458 14.3714 13.7464 14.5537 14.2119C13.698 14.978 12.693 15.5588 11.602 15.9177C11.2899 15.527 10.8938 15.2117 10.4431 14.9951C9.99241 14.7786 9.49869 14.6664 8.99866 14.6669C8.49856 14.6665 8.0048 14.7788 7.55409 14.9955C7.10338 15.2122 6.70731 15.5277 6.39532 15.9186C5.3043 15.5596 4.29934 14.9789 3.44366 14.2127C3.62587 13.7472 3.70086 13.2467 3.66306 12.7482C3.62526 12.2498 3.47564 11.7662 3.22532 11.3336C2.97557 10.9003 2.63137 10.5289 2.21831 10.247C1.80526 9.96509 1.33397 9.77991 0.839491 9.70522C0.605586 8.58087 0.605586 7.42041 0.839491 6.29606C1.33405 6.22127 1.80538 6.03596 2.21844 5.75391C2.6315 5.47185 2.97566 5.1003 3.22532 4.66689C3.47552 4.2343 3.62506 3.75092 3.66286 3.25263C3.70066 2.75434 3.62574 2.25393 3.44366 1.78855V1.78772ZM10.2487 10.1644C10.5353 10.0014 10.7868 9.78339 10.9888 9.52282C11.1908 9.26225 11.3393 8.9643 11.4257 8.64612C11.5121 8.32794 11.5347 7.99581 11.4922 7.66886C11.4497 7.34191 11.3429 7.0266 11.1781 6.74107C11.0132 6.45554 10.7935 6.20544 10.5316 6.00517C10.2697 5.8049 9.97077 5.65841 9.65202 5.57414C9.33328 5.48987 9.00101 5.46948 8.67435 5.51414C8.34768 5.55881 8.03308 5.66764 7.74866 5.83439C7.17914 6.16827 6.7648 6.71385 6.59606 7.35209C6.42732 7.99033 6.51788 8.66941 6.84797 9.24113C7.17806 9.81284 7.72089 10.2308 8.358 10.4038C8.9951 10.5767 9.67476 10.4907 10.2487 10.1644Z" fill="#93A3BB"/>
</svg>
